<?xml version="1.0" encoding="UTF-8" ?>
<!DOCTYPE svg PUBLIC "-//W3C//DTD SVG 1.1//EN" "http://www.w3.org/Graphics/SVG/1.1/DTD/svg11.dtd">
<svg width="640pt" height="640pt" viewBox="0 0 640 640" version="1.1" xmlns="http://www.w3.org/2000/svg">
<path fill="#feffff" d=" M 0.00 0.00 L 640.00 0.00 L 640.00 640.00 L 519.51 640.00 C 540.25 621.45 561.01 602.93 581.68 584.31 C 556.57 559.11 531.16 534.22 506.10 508.96 C 503.35 506.19 500.60 503.41 497.72 500.78 C 520.96 469.52 535.71 432.33 541.80 393.94 C 544.74 375.79 545.54 357.36 545.25 339.00 C 545.25 308.00 545.24 277.00 545.26 246.00 C 545.39 203.03 536.27 159.51 515.22 121.79 C 496.61 88.63 470.12 59.60 437.84 39.36 C 429.28 33.84 421.13 27.62 411.96 23.11 C 387.35 10.18 359.57 4.46 332.01 2.81 C 310.96 1.56 289.72 2.41 268.95 6.16 C 252.13 9.19 235.89 14.71 219.99 20.87 C 192.34 31.44 167.44 48.68 146.83 69.83 C 127.71 89.62 111.82 112.62 100.76 137.85 C 86.81 169.30 80.27 203.70 79.50 237.99 C 79.50 277.63 79.50 317.28 79.50 356.92 C 80.23 391.82 86.94 426.85 101.33 458.76 C 116.83 493.30 141.15 523.80 171.14 546.87 C 200.86 569.67 236.97 583.47 274.04 588.10 C 328.59 594.96 386.21 586.46 433.81 557.96 C 461.46 585.37 489.24 612.64 516.94 640.00 L 0.00 640.00 L 0.00 0.00 Z" />
<path fill="#0080ff" d=" M 268.95 6.16 C 289.72 2.41 310.96 1.56 332.01 2.81 C 359.57 4.46 387.35 10.18 411.96 23.11 C 421.13 27.62 429.28 33.84 437.84 39.36 C 440.31 42.48 443.26 45.16 446.20 47.83 C 458.36 59.88 468.20 74.27 474.96 90.00 C 482.65 107.73 486.49 126.94 487.67 146.18 C 489.77 175.11 484.94 204.76 471.84 230.78 C 465.97 243.20 458.15 254.54 449.97 265.53 C 431.85 289.58 410.41 311.03 386.95 329.88 C 377.71 338.05 368.93 347.09 362.92 357.96 C 358.45 365.88 356.64 374.93 355.34 383.84 C 353.68 395.31 353.50 406.92 353.20 418.49 C 321.55 418.50 289.90 418.50 258.26 418.49 C 258.16 402.94 259.06 387.36 261.33 371.97 C 263.56 357.54 267.19 342.85 275.64 330.69 C 287.96 312.68 304.07 297.70 320.36 283.35 C 328.04 277.08 334.84 269.84 341.65 262.66 C 354.45 248.95 366.51 234.46 376.63 218.63 C 386.74 202.68 392.31 183.97 392.88 165.11 C 393.45 145.84 389.98 125.53 378.33 109.70 C 370.35 99.01 359.07 90.13 345.81 87.32 C 331.49 83.90 316.66 82.74 301.97 83.42 C 284.11 83.76 266.95 91.97 254.08 104.09 C 241.27 116.52 236.42 134.85 236.43 152.25 C 222.80 152.26 209.16 152.23 195.53 152.26 C 180.01 152.26 164.49 152.23 148.97 152.29 C 147.47 152.12 145.76 152.45 144.46 151.53 C 143.60 149.47 143.74 147.18 143.67 144.99 C 143.80 125.46 147.00 105.74 154.76 87.73 C 166.15 60.78 188.13 39.30 213.66 25.56 C 216.03 24.38 218.06 22.67 219.99 20.87 C 235.89 14.71 252.13 9.19 268.95 6.16 Z" />
<path fill="#03abff" d=" M 146.83 69.83 C 167.44 48.68 192.34 31.44 219.99 20.87 C 218.06 22.67 216.03 24.38 213.66 25.56 C 188.13 39.30 166.15 60.78 154.76 87.73 C 147.00 105.74 143.80 125.46 143.67 144.99 C 143.74 147.18 143.60 149.47 144.46 151.53 C 145.76 152.45 147.47 152.12 148.97 152.29 C 164.49 152.23 180.01 152.26 195.53 152.26 C 178.98 182.98 173.92 218.48 174.50 252.99 C 174.52 286.03 174.47 319.06 174.53 352.09 C 175.00 384.48 181.19 417.46 197.20 445.94 C 210.76 470.54 231.53 491.81 257.75 502.68 C 257.82 528.22 257.57 553.77 257.87 579.30 C 279.58 579.72 301.32 579.35 323.04 579.48 C 333.67 579.36 344.30 579.72 354.92 579.31 C 355.17 554.82 354.97 530.32 355.01 505.82 C 371.34 500.51 386.66 491.97 399.33 480.34 C 420.64 460.86 435.33 434.75 442.81 407.00 C 448.11 387.49 450.27 367.20 450.00 347.01 C 449.98 319.85 450.03 292.69 449.97 265.53 C 458.15 254.54 465.97 243.20 471.84 230.78 C 484.94 204.76 489.77 175.11 487.67 146.18 C 486.49 126.94 482.65 107.73 474.96 90.00 C 468.20 74.27 458.36 59.88 446.20 47.83 C 443.26 45.16 440.31 42.48 437.84 39.36 C 470.12 59.60 496.61 88.63 515.22 121.79 C 536.27 159.51 545.39 203.03 545.26 246.00 C 545.24 277.00 545.25 308.00 545.25 339.00 C 545.54 357.36 544.74 375.79 541.80 393.94 C 535.71 432.33 520.96 469.52 497.72 500.78 C 500.60 503.41 503.35 506.19 506.10 508.96 C 531.16 534.22 556.57 559.11 581.68 584.31 C 561.01 602.93 540.25 621.45 519.51 640.00 L 516.94 640.00 C 489.24 612.64 461.46 585.37 433.81 557.96 C 386.21 586.46 328.59 594.96 274.04 588.10 C 236.97 583.47 200.86 569.67 171.14 546.87 C 141.15 523.80 116.83 493.30 101.33 458.76 C 86.94 426.85 80.23 391.82 79.50 356.92 C 79.50 317.28 79.50 277.63 79.50 237.99 C 80.27 203.70 86.81 169.30 100.76 137.85 C 111.82 112.62 127.71 89.62 146.83 69.83 Z" />
<path fill="#feffff" d=" M 254.08 104.09 C 266.95 91.97 284.11 83.76 301.97 83.42 C 316.66 82.74 331.49 83.90 345.81 87.32 C 359.07 90.13 370.35 99.01 378.33 109.70 C 389.98 125.53 393.45 145.84 392.88 165.11 C 392.31 183.97 386.74 202.68 376.63 218.63 C 366.51 234.46 354.45 248.95 341.65 262.66 C 334.84 269.84 328.04 277.08 320.36 283.35 C 304.07 297.70 287.96 312.68 275.64 330.69 C 267.19 342.85 263.56 357.54 261.33 371.97 C 259.06 387.36 258.16 402.94 258.26 418.49 C 289.90 418.50 321.55 418.50 353.20 418.49 C 353.50 406.92 353.68 395.31 355.34 383.84 C 356.64 374.93 358.45 365.88 362.92 357.96 C 368.93 347.09 377.71 338.05 386.95 329.88 C 410.41 311.03 431.85 289.58 449.97 265.53 C 450.03 292.69 449.98 319.85 450.00 347.01 C 450.27 367.20 448.11 387.49 442.81 407.00 C 435.33 434.75 420.64 460.86 399.33 480.34 C 386.66 491.97 371.34 500.51 355.01 505.82 C 354.99 499.96 355.01 494.11 354.99 488.25 C 322.58 488.26 290.17 488.25 257.76 488.26 C 257.74 493.06 257.75 497.87 257.75 502.68 C 231.53 491.81 210.76 470.54 197.20 445.94 C 181.19 417.46 175.00 384.48 174.53 352.09 C 174.47 319.06 174.52 286.03 174.50 252.99 C 173.92 218.48 178.98 182.98 195.53 152.26 C 209.16 152.23 222.80 152.26 236.43 152.25 C 236.42 134.85 241.27 116.52 254.08 104.09 Z" />
<path fill="#0080ff" d=" M 257.76 488.26 C 290.17 488.25 322.58 488.26 354.99 488.25 C 355.01 494.11 354.99 499.96 355.01 505.82 C 354.97 530.32 355.17 554.82 354.92 579.31 C 344.30 579.72 333.67 579.36 323.04 579.48 C 301.32 579.35 279.58 579.72 257.87 579.30 C 257.57 553.77 257.82 528.22 257.75 502.68 C 257.75 497.87 257.74 493.06 257.76 488.26 Z" />
</svg>
